<svg xmlns="http://www.w3.org/2000/svg" width="100" height="100"><g transform="matrix(1.73268 0 0 1.73268 -36.634 -1686.772)"><rect width="27.229" height="50.925" x="36.385" y="976.9" fill="#3b3c3d" stroke="#fcd116" stroke-width="1.018" rx="4.114" ry="2.852"/><path fill="none" stroke="#4bb7c0" stroke-width="8.726" d="m -71.42857,-250.49496 c 0,20.51343 -16.629423,37.14285 -37.14286,37.14285 -20.51343,0 -37.14285,-16.62942 -37.14285,-37.14285 0,-20.51344 16.62942,-37.14286 37.14285,-37.14286 20.513437,0 37.14286,16.62942 37.14286,37.14286 z" transform="matrix(.0389 0 0 .0389 54.223 1034.364)"/><path fill="#4bb7c0" d="m -71.42857,-250.49496 c 0,20.51343 -16.629423,37.14285 -37.14286,37.14285 -20.51343,0 -37.14285,-16.62942 -37.14285,-37.14285 0,-20.51344 16.62942,-37.14286 37.14285,-37.14286 20.513437,0 37.14286,16.62942 37.14286,37.14286 z" transform="translate(48.41 988.484) scale(.02798)"/><rect width="6.444" height="1.143" x="47.978" y="980.946" fill="#4bb7c0" ry=".572"/><rect width="23.017" height="36.657" x="38.491" y="984.837" fill="#9777a8"/></g></svg>